<svg xmlns="http://www.w3.org/2000/svg" viewBox="0 0 720 220" font-family="DejaVu Sans, Arial, sans-serif"><defs><marker id="a" markerWidth="10" markerHeight="10" refX="8" refY="3" orient="auto" markerUnits="strokeWidth"><path d="M0,0 L8,3 L0,6 Z" fill="#F5B301"/></marker></defs><text x="20" y="22" font-size="15" font-weight="bold" fill="#0B3D62">Machines virtuelles</text><rect x="20" y="35" width="150" height="40" rx="8" fill="#9aa6b2"/><text x="95.0" y="60.0" fill="#fff" font-size="13" font-weight="bold" text-anchor="middle">App A</text><rect x="180" y="35" width="150" height="40" rx="8" fill="#9aa6b2"/><text x="255.0" y="60.0" fill="#fff" font-size="13" font-weight="bold" text-anchor="middle">App B</text><rect x="20" y="78" width="150" height="34" rx="8" fill="#c3cdd8"/><text x="95.0" y="100.0" fill="#1f2329" font-size="12" font-weight="bold" text-anchor="middle">OS invité</text><rect x="180" y="78" width="150" height="34" rx="8" fill="#c3cdd8"/><text x="255.0" y="100.0" fill="#1f2329" font-size="12" font-weight="bold" text-anchor="middle">OS invité</text><rect x="20" y="115" width="310" height="32" rx="8" fill="#14507A"/><text x="175.0" y="136.0" fill="#fff" font-size="13" font-weight="bold" text-anchor="middle">Hyperviseur</text><rect x="20" y="150" width="310" height="30" rx="8" fill="#0B3D62"/><text x="175.0" y="170.0" fill="#fff" font-size="12" font-weight="bold" text-anchor="middle">OS hôte + Matériel</text><text x="175" y="205" font-size="12" fill="#5B6770" text-anchor="middle">lourd · démarre en minutes</text><text x="390" y="22" font-size="15" font-weight="bold" fill="#0B3D62">Conteneurs</text><rect x="390" y="35" width="150" height="40" rx="8" fill="#1E9E5A"/><text x="465.0" y="60.0" fill="#fff" font-size="13" font-weight="bold" text-anchor="middle">App A</text><rect x="550" y="35" width="150" height="40" rx="8" fill="#1E9E5A"/><text x="625.0" y="60.0" fill="#fff" font-size="13" font-weight="bold" text-anchor="middle">App B</text><rect x="390" y="82" width="310" height="30" rx="8" fill="#14507A"/><text x="545.0" y="102.0" fill="#fff" font-size="13" font-weight="bold" text-anchor="middle">Moteur Docker</text><rect x="390" y="117" width="310" height="30" rx="8" fill="#0B3D62"/><text x="545.0" y="137.0" fill="#fff" font-size="12" font-weight="bold" text-anchor="middle">OS hôte (noyau partagé)</text><rect x="390" y="150" width="310" height="30" rx="8" fill="#0B3D62"/><text x="545.0" y="170.0" fill="#fff" font-size="12" font-weight="bold" text-anchor="middle">Matériel</text><text x="545" y="205" font-size="12" fill="#5B6770" text-anchor="middle">léger · démarre en millisecondes</text></svg>