<svg xmlns="http://www.w3.org/2000/svg" viewBox="0 0 720 210" font-family="DejaVu Sans, Arial, sans-serif"><defs><marker id="a" markerWidth="10" markerHeight="10" refX="8" refY="3" orient="auto" markerUnits="strokeWidth"><path d="M0,0 L8,3 L0,6 Z" fill="#F5B301"/></marker></defs><text x="20" y="22" font-size="15" font-weight="bold" fill="#0B3D62">Architecture Kubernetes</text><rect x="20" y="35" width="680" height="44" rx="8" fill="#0B3D62"/><text x="360.0" y="62.0" fill="#fff" font-size="13" font-weight="bold" text-anchor="middle">Control Plane : API Server · Scheduler · Controllers · etcd</text><line x1="360" y1="79" x2="360" y2="100" stroke="#F5B301" stroke-width="3" marker-end="url(#a)"/><rect x="40" y="105" width="200" height="90" rx="8" fill="#F4F7FA"/><text x="140.0" y="155.0" fill="#fff" font-size="15" font-weight="bold" text-anchor="middle"></text><text x="140" y="125" font-size="13" font-weight="bold" fill="#0B3D62" text-anchor="middle">Node 1</text><rect x="58" y="135" width="75" height="46" rx="8" fill="#1E9E5A"/><text x="95.5" y="163.0" fill="#fff" font-size="12" font-weight="bold" text-anchor="middle">Pod</text><rect x="145" y="135" width="75" height="46" rx="8" fill="#1E9E5A"/><text x="182.5" y="163.0" fill="#fff" font-size="12" font-weight="bold" text-anchor="middle">Pod</text><rect x="270" y="105" width="200" height="90" rx="8" fill="#F4F7FA"/><text x="370.0" y="155.0" fill="#fff" font-size="15" font-weight="bold" text-anchor="middle"></text><text x="370" y="125" font-size="13" font-weight="bold" fill="#0B3D62" text-anchor="middle">Node 2</text><rect x="288" y="135" width="75" height="46" rx="8" fill="#1E9E5A"/><text x="325.5" y="163.0" fill="#fff" font-size="12" font-weight="bold" text-anchor="middle">Pod</text><rect x="375" y="135" width="75" height="46" rx="8" fill="#1E9E5A"/><text x="412.5" y="163.0" fill="#fff" font-size="12" font-weight="bold" text-anchor="middle">Pod</text><rect x="500" y="105" width="200" height="90" rx="8" fill="#F4F7FA"/><text x="600.0" y="155.0" fill="#fff" font-size="15" font-weight="bold" text-anchor="middle"></text><text x="600" y="125" font-size="13" font-weight="bold" fill="#0B3D62" text-anchor="middle">Node 3</text><rect x="518" y="135" width="75" height="46" rx="8" fill="#1E9E5A"/><text x="555.5" y="163.0" fill="#fff" font-size="12" font-weight="bold" text-anchor="middle">Pod</text><rect x="605" y="135" width="75" height="46" rx="8" fill="#1E9E5A"/><text x="642.5" y="163.0" fill="#fff" font-size="12" font-weight="bold" text-anchor="middle">Pod</text></svg>