<svg xmlns="http://www.w3.org/2000/svg" viewBox="0 0 720 260" font-family="DejaVu Sans, Arial, sans-serif"><defs><marker id="a" markerWidth="10" markerHeight="10" refX="8" refY="3" orient="auto" markerUnits="strokeWidth"><path d="M0,0 L8,3 L0,6 Z" fill="#F5B301"/></marker></defs><text x="20" y="22" font-size="15" font-weight="bold" fill="#0B3D62">OAuth2 / OIDC — Authorization Code + PKCE</text><rect x="20" y="40" width="140" height="40" rx="8" fill="#0B3D62"/><text x="90.0" y="65.0" fill="#fff" font-size="13" font-weight="bold" text-anchor="middle">Utilisateur</text><rect x="200" y="40" width="140" height="40" rx="8" fill="#0B3D62"/><text x="270.0" y="65.0" fill="#fff" font-size="13" font-weight="bold" text-anchor="middle">Client</text><rect x="380" y="40" width="140" height="40" rx="8" fill="#0B3D62"/><text x="450.0" y="65.0" fill="#fff" font-size="13" font-weight="bold" text-anchor="middle">Auth Server</text><rect x="560" y="40" width="140" height="40" rx="8" fill="#0B3D62"/><text x="630.0" y="65.0" fill="#fff" font-size="13" font-weight="bold" text-anchor="middle">API</text><circle cx="34" cy="106" r="9" fill="#0B3D62"/><text x="34" y="110" font-size="11" fill="#fff" text-anchor="middle">1</text><text x="52" y="110" font-size="13" fill="#1f2329">Utilisateur → Client : je veux me connecter</text><circle cx="34" cy="132" r="9" fill="#14507A"/><text x="34" y="136" font-size="11" fill="#fff" text-anchor="middle">2</text><text x="52" y="136" font-size="13" fill="#1f2329">Client → Auth Server : redirige vers login</text><circle cx="34" cy="158" r="9" fill="#1E9E5A"/><text x="34" y="162" font-size="11" fill="#fff" text-anchor="middle">3</text><text x="52" y="162" font-size="13" fill="#1f2329">Auth Server → Client : code d'autorisation</text><circle cx="34" cy="184" r="9" fill="#1E9E5A"/><text x="34" y="188" font-size="11" fill="#fff" text-anchor="middle">4</text><text x="52" y="188" font-size="13" fill="#1f2329">Client → Auth Server : code + PKCE → tokens</text><circle cx="34" cy="210" r="9" fill="#6C3FB5"/><text x="34" y="214" font-size="11" fill="#fff" text-anchor="middle">5</text><text x="52" y="214" font-size="13" fill="#1f2329">Client → API : appel avec access token</text></svg>