<svg xmlns="http://www.w3.org/2000/svg" viewBox="0 0 720 230" font-family="DejaVu Sans, Arial, sans-serif"><defs><marker id="a" markerWidth="10" markerHeight="10" refX="8" refY="3" orient="auto" markerUnits="strokeWidth"><path d="M0,0 L8,3 L0,6 Z" fill="#F5B301"/></marker></defs><text x="20" y="24" font-size="16" font-weight="bold" fill="#0B3D62">Cascade : la valeur arrive à la fin</text><rect x="20" y="40" width="110" height="46" rx="8" fill="#0B3D62"/><text x="75.0" y="68.0" fill="#fff" font-size="13" font-weight="bold" text-anchor="middle">Besoins</text><line x1="130" y1="63" x2="155" y2="63" stroke="#F5B301" stroke-width="3" marker-end="url(#a)"/><rect x="155" y="40" width="110" height="46" rx="8" fill="#0B3D62"/><text x="210.0" y="68.0" fill="#fff" font-size="13" font-weight="bold" text-anchor="middle">Concept.</text><line x1="265" y1="63" x2="290" y2="63" stroke="#F5B301" stroke-width="3" marker-end="url(#a)"/><rect x="290" y="40" width="110" height="46" rx="8" fill="#0B3D62"/><text x="345.0" y="68.0" fill="#fff" font-size="13" font-weight="bold" text-anchor="middle">Code</text><line x1="400" y1="63" x2="425" y2="63" stroke="#F5B301" stroke-width="3" marker-end="url(#a)"/><rect x="425" y="40" width="110" height="46" rx="8" fill="#0B3D62"/><text x="480.0" y="68.0" fill="#fff" font-size="13" font-weight="bold" text-anchor="middle">Tests</text><line x1="535" y1="63" x2="560" y2="63" stroke="#F5B301" stroke-width="3" marker-end="url(#a)"/><rect x="560" y="40" width="110" height="46" rx="8" fill="#1E9E5A"/><text x="615.0" y="68.0" fill="#fff" font-size="13" font-weight="bold" text-anchor="middle">Livraison</text><text x="20" y="150" font-size="16" font-weight="bold" fill="#0B3D62">Agile : de la valeur à chaque itération</text><rect x="20" y="166" width="110" height="46" rx="8" fill="#1E9E5A"/><text x="75.0" y="185.0" fill="#fff" font-size="13" font-weight="bold" text-anchor="middle">Itér. 1</text><text x="75.0" y="203.0" fill="#fff" font-size="10" text-anchor="middle">valeur ✓</text><line x1="130" y1="189" x2="155" y2="189" stroke="#F5B301" stroke-width="3" marker-end="url(#a)"/><rect x="155" y="166" width="110" height="46" rx="8" fill="#1E9E5A"/><text x="210.0" y="185.0" fill="#fff" font-size="13" font-weight="bold" text-anchor="middle">Itér. 2</text><text x="210.0" y="203.0" fill="#fff" font-size="10" text-anchor="middle">valeur ✓</text><line x1="265" y1="189" x2="290" y2="189" stroke="#F5B301" stroke-width="3" marker-end="url(#a)"/><rect x="290" y="166" width="110" height="46" rx="8" fill="#1E9E5A"/><text x="345.0" y="185.0" fill="#fff" font-size="13" font-weight="bold" text-anchor="middle">Itér. 3</text><text x="345.0" y="203.0" fill="#fff" font-size="10" text-anchor="middle">valeur ✓</text><line x1="400" y1="189" x2="425" y2="189" stroke="#F5B301" stroke-width="3" marker-end="url(#a)"/><rect x="425" y="166" width="110" height="46" rx="8" fill="#1E9E5A"/><text x="480.0" y="185.0" fill="#fff" font-size="13" font-weight="bold" text-anchor="middle">Itér. 4</text><text x="480.0" y="203.0" fill="#fff" font-size="10" text-anchor="middle">valeur ✓</text><line x1="535" y1="189" x2="560" y2="189" stroke="#F5B301" stroke-width="3" marker-end="url(#a)"/><rect x="560" y="166" width="110" height="46" rx="8" fill="#1E9E5A"/><text x="615.0" y="185.0" fill="#fff" font-size="13" font-weight="bold" text-anchor="middle">Itér. 5</text><text x="615.0" y="203.0" fill="#fff" font-size="10" text-anchor="middle">valeur ✓</text></svg>