<svg xmlns="http://www.w3.org/2000/svg" viewBox="0 0 770 150" font-family="DejaVu Sans, Arial, sans-serif"><defs><marker id="a" markerWidth="10" markerHeight="10" refX="8" refY="3" orient="auto" markerUnits="strokeWidth"><path d="M0,0 L8,3 L0,6 Z" fill="#F5B301"/></marker></defs><rect x="20" y="50" width="120" height="56" rx="8" fill="#0B3D62"/><text x="80.0" y="83.0" fill="#fff" font-size="14" font-weight="bold" text-anchor="middle">Commit</text><line x1="140" y1="78" x2="168" y2="78" stroke="#F5B301" stroke-width="3" marker-end="url(#a)"/><rect x="168" y="50" width="120" height="56" rx="8" fill="#14507A"/><text x="228.0" y="83.0" fill="#fff" font-size="14" font-weight="bold" text-anchor="middle">Build</text><line x1="288" y1="78" x2="316" y2="78" stroke="#F5B301" stroke-width="3" marker-end="url(#a)"/><rect x="316" y="50" width="120" height="56" rx="8" fill="#14507A"/><text x="376.0" y="83.0" fill="#fff" font-size="14" font-weight="bold" text-anchor="middle">Tests</text><line x1="436" y1="78" x2="464" y2="78" stroke="#F5B301" stroke-width="3" marker-end="url(#a)"/><rect x="464" y="50" width="120" height="56" rx="8" fill="#14507A"/><text x="524.0" y="83.0" fill="#fff" font-size="14" font-weight="bold" text-anchor="middle">Image</text><line x1="584" y1="78" x2="612" y2="78" stroke="#F5B301" stroke-width="3" marker-end="url(#a)"/><rect x="612" y="50" width="120" height="56" rx="8" fill="#1E9E5A"/><text x="672.0" y="83.0" fill="#fff" font-size="14" font-weight="bold" text-anchor="middle">Deploy</text><text x="20" y="30" font-size="14" font-weight="bold" fill="#0B3D62">À chaque push : tout est automatisé</text><text x="20" y="135" font-size="12" fill="#C0392B">✗ tests rouges → fusion bloquée</text></svg>