<svg xmlns="http://www.w3.org/2000/svg" viewBox="0 0 720 280" font-family="DejaVu Sans, Arial, sans-serif"><defs><marker id="a" markerWidth="10" markerHeight="10" refX="8" refY="3" orient="auto" markerUnits="strokeWidth"><path d="M0,0 L8,3 L0,6 Z" fill="#F5B301"/></marker><marker id="ag" markerWidth="10" markerHeight="10" refX="8" refY="3" orient="auto" markerUnits="strokeWidth"><path d="M0,0 L8,3 L0,6 Z" fill="#1E9E5A"/></marker></defs><text x="360" y="24" fill="#0B3D62" font-size="16" font-weight="bold" text-anchor="middle">Plus un bug est détecté tard, plus il coûte cher</text><line x1="70" y1="240" x2="690" y2="240" stroke="#5B6770" stroke-width="2"/><line x1="70" y1="40" x2="70" y2="240" stroke="#5B6770" stroke-width="2"/><text x="70" y="262" fill="#5B6770" font-size="12" text-anchor="middle">Code</text><rect x="130" y="190" width="90" height="50" rx="6" fill="#1E9E5A"/><text x="175" y="182" fill="#0B3D62" font-size="14" font-weight="bold" text-anchor="middle">x1</text><text x="175" y="258" fill="#5B6770" font-size="12" text-anchor="middle">Code</text><rect x="280" y="140" width="90" height="100" rx="6" fill="#1E9E5A"/><text x="325" y="132" fill="#0B3D62" font-size="14" font-weight="bold" text-anchor="middle">x5</text><text x="325" y="258" fill="#5B6770" font-size="12" text-anchor="middle">CI / Tests</text><rect x="430" y="80" width="90" height="160" rx="6" fill="#F5B301"/><text x="475" y="72" fill="#0B3D62" font-size="14" font-weight="bold" text-anchor="middle">x25</text><text x="475" y="258" fill="#5B6770" font-size="12" text-anchor="middle">Recette</text><rect x="580" y="40" width="90" height="200" rx="6" fill="#C0392B"/><text x="625" y="32" fill="#0B3D62" font-size="14" font-weight="bold" text-anchor="middle">x100</text><text x="625" y="258" fill="#5B6770" font-size="12" text-anchor="middle">Production</text><text x="690" y="230" fill="#5B6770" font-size="11" text-anchor="end">coût</text><text x="95" y="50" fill="#5B6770" font-size="14" text-anchor="start">↑</text></svg>