<svg xmlns="http://www.w3.org/2000/svg" viewBox="0 0 760 140" font-family="DejaVu Sans, Arial, sans-serif"><defs><marker id="a" markerWidth="10" markerHeight="10" refX="8" refY="3" orient="auto" markerUnits="strokeWidth"><path d="M0,0 L8,3 L0,6 Z" fill="#F5B301"/></marker></defs><rect x="20" y="70" width="78" height="46" rx="8" fill="#0B3D62"/><text x="59.0" y="98.0" fill="#fff" font-size="12" font-weight="bold" text-anchor="middle">PLAN</text><line x1="98" y1="93" x2="106" y2="93" stroke="#F5B301" stroke-width="3" marker-end="url(#a)"/><rect x="106" y="70" width="78" height="46" rx="8" fill="#0B3D62"/><text x="145.0" y="98.0" fill="#fff" font-size="12" font-weight="bold" text-anchor="middle">CODE</text><line x1="184" y1="93" x2="192" y2="93" stroke="#F5B301" stroke-width="3" marker-end="url(#a)"/><rect x="192" y="70" width="78" height="46" rx="8" fill="#0B3D62"/><text x="231.0" y="98.0" fill="#fff" font-size="12" font-weight="bold" text-anchor="middle">BUILD</text><line x1="270" y1="93" x2="278" y2="93" stroke="#F5B301" stroke-width="3" marker-end="url(#a)"/><rect x="278" y="70" width="78" height="46" rx="8" fill="#0B3D62"/><text x="317.0" y="98.0" fill="#fff" font-size="12" font-weight="bold" text-anchor="middle">TEST</text><line x1="356" y1="93" x2="364" y2="93" stroke="#F5B301" stroke-width="3" marker-end="url(#a)"/><rect x="364" y="70" width="78" height="46" rx="8" fill="#14507A"/><text x="403.0" y="98.0" fill="#fff" font-size="12" font-weight="bold" text-anchor="middle">RELEASE</text><line x1="442" y1="93" x2="450" y2="93" stroke="#F5B301" stroke-width="3" marker-end="url(#a)"/><rect x="450" y="70" width="78" height="46" rx="8" fill="#14507A"/><text x="489.0" y="98.0" fill="#fff" font-size="12" font-weight="bold" text-anchor="middle">DEPLOY</text><line x1="528" y1="93" x2="536" y2="93" stroke="#F5B301" stroke-width="3" marker-end="url(#a)"/><rect x="536" y="70" width="78" height="46" rx="8" fill="#14507A"/><text x="575.0" y="98.0" fill="#fff" font-size="12" font-weight="bold" text-anchor="middle">OPERATE</text><line x1="614" y1="93" x2="622" y2="93" stroke="#F5B301" stroke-width="3" marker-end="url(#a)"/><rect x="622" y="70" width="78" height="46" rx="8" fill="#14507A"/><text x="661.0" y="98.0" fill="#fff" font-size="12" font-weight="bold" text-anchor="middle">MONITOR</text><path d="M60,70 C60,30 661,30 661,70" fill="none" stroke="#F5B301" stroke-width="3" marker-end="url(#a)"/><text x="360.0" y="22" font-size="13" fill="#5B6770" text-anchor="middle">boucle de feedback continue</text></svg>