<svg xmlns="http://www.w3.org/2000/svg" viewBox="0 0 720 305" font-family="DejaVu Sans, Arial, sans-serif"><defs><marker id="a" markerWidth="10" markerHeight="10" refX="8" refY="3" orient="auto" markerUnits="strokeWidth"><path d="M0,0 L8,3 L0,6 Z" fill="#F5B301"/></marker><marker id="ag" markerWidth="10" markerHeight="10" refX="8" refY="3" orient="auto" markerUnits="strokeWidth"><path d="M0,0 L8,3 L0,6 Z" fill="#1E9E5A"/></marker></defs><text x="360" y="26" fill="#0B3D62" font-size="15" font-weight="bold" text-anchor="middle">4 métriques DORA : mesurer l'impact business du CI/CD</text><rect x="40" y="48" width="560" height="50" rx="8" fill="#1E9E5A"/><text x="320.0" y="78.0" fill="#fff" font-size="14" font-weight="bold" text-anchor="middle"></text><text x="60" y="72" fill="#fff" font-size="15" font-weight="bold" text-anchor="start">Fréquence de déploiement</text><text x="60" y="90" fill="#fff" font-size="11" text-anchor="start">à quelle vitesse on livre</text><text x="635" y="81" fill="#1E9E5A" font-size="30" font-weight="bold" text-anchor="middle">↑</text><rect x="40" y="110" width="560" height="50" rx="8" fill="#0B3D62"/><text x="320.0" y="140.0" fill="#fff" font-size="14" font-weight="bold" text-anchor="middle"></text><text x="60" y="134" fill="#fff" font-size="15" font-weight="bold" text-anchor="start">Délai de livraison (Lead Time)</text><text x="60" y="152" fill="#fff" font-size="11" text-anchor="start">commit → production</text><text x="635" y="143" fill="#0B3D62" font-size="30" font-weight="bold" text-anchor="middle">↓</text><rect x="40" y="172" width="560" height="50" rx="8" fill="#F5B301"/><text x="320.0" y="202.0" fill="#fff" font-size="14" font-weight="bold" text-anchor="middle"></text><text x="60" y="196" fill="#0B3D62" font-size="15" font-weight="bold" text-anchor="start">Taux d'échec de changement</text><text x="60" y="214" fill="#0B3D62" font-size="11" text-anchor="start">% de déploiements ratés</text><text x="635" y="205" fill="#F5B301" font-size="30" font-weight="bold" text-anchor="middle">↓</text><rect x="40" y="234" width="560" height="50" rx="8" fill="#6C3FB5"/><text x="320.0" y="264.0" fill="#fff" font-size="14" font-weight="bold" text-anchor="middle"></text><text x="60" y="258" fill="#fff" font-size="15" font-weight="bold" text-anchor="start">MTTR</text><text x="60" y="276" fill="#fff" font-size="11" text-anchor="start">temps de rétablissement</text><text x="635" y="267" fill="#6C3FB5" font-size="30" font-weight="bold" text-anchor="middle">↓</text></svg>