<svg xmlns="http://www.w3.org/2000/svg" viewBox="0 0 720 312" font-family="DejaVu Sans, Arial, sans-serif"><defs><marker id="a" markerWidth="10" markerHeight="10" refX="8" refY="3" orient="auto" markerUnits="strokeWidth"><path d="M0,0 L8,3 L0,6 Z" fill="#F5B301"/></marker><marker id="ag" markerWidth="10" markerHeight="10" refX="8" refY="3" orient="auto" markerUnits="strokeWidth"><path d="M0,0 L8,3 L0,6 Z" fill="#1E9E5A"/></marker></defs><text x="360" y="26" fill="#0B3D62" font-size="15" font-weight="bold" text-anchor="middle">Un événement déclenche un workflow sur un runner</text><rect x="30" y="56" width="190" height="44" rx="8" fill="#F5B301"/><text x="125.0" y="74.0" fill="#0B3D62" font-size="14" font-weight="bold" text-anchor="middle">push</text><text x="125.0" y="93.0" fill="#0B3D62" font-size="10" text-anchor="middle">un commit poussé</text><line x1="222" y1="78" x2="296" y2="163.0" stroke="#F5B301" stroke-width="3" marker-end="url(#a)"/><rect x="30" y="114" width="190" height="44" rx="8" fill="#F5B301"/><text x="125.0" y="132.0" fill="#0B3D62" font-size="14" font-weight="bold" text-anchor="middle">pull_request</text><text x="125.0" y="151.0" fill="#0B3D62" font-size="10" text-anchor="middle">une PR ouverte/maj</text><line x1="222" y1="136" x2="296" y2="163.0" stroke="#F5B301" stroke-width="3" marker-end="url(#a)"/><rect x="30" y="172" width="190" height="44" rx="8" fill="#F5B301"/><text x="125.0" y="190.0" fill="#0B3D62" font-size="14" font-weight="bold" text-anchor="middle">schedule</text><text x="125.0" y="209.0" fill="#0B3D62" font-size="10" text-anchor="middle">cron (ex: nuit)</text><line x1="222" y1="194" x2="296" y2="163.0" stroke="#F5B301" stroke-width="3" marker-end="url(#a)"/><rect x="30" y="230" width="190" height="44" rx="8" fill="#F5B301"/><text x="125.0" y="248.0" fill="#0B3D62" font-size="14" font-weight="bold" text-anchor="middle">workflow_dispatch</text><text x="125.0" y="267.0" fill="#0B3D62" font-size="10" text-anchor="middle">manuel (bouton)</text><line x1="222" y1="252" x2="296" y2="163.0" stroke="#F5B301" stroke-width="3" marker-end="url(#a)"/><rect x="300" y="123.0" width="150" height="80" rx="8" fill="#2088ff"/><text x="375.0" y="159.0" fill="#fff" font-size="14" font-weight="bold" text-anchor="middle">GitHub Actions</text><text x="375.0" y="178.0" fill="#fff" font-size="11" text-anchor="middle">orchestrateur</text><line x1="452" y1="163.0" x2="528" y2="163.0" stroke="#F5B301" stroke-width="3" marker-end="url(#a)"/><rect x="530" y="123.0" width="160" height="80" rx="8" fill="#0B3D62"/><text x="610.0" y="159.0" fill="#fff" font-size="14" font-weight="bold" text-anchor="middle">Runner</text><text x="610.0" y="178.0" fill="#fff" font-size="11" text-anchor="middle">machine qui exécute</text><text x="610" y="227.0" fill="#5B6770" font-size="11" text-anchor="middle">ubuntu · windows · macos · self-hosted</text></svg>