<svg xmlns="http://www.w3.org/2000/svg" viewBox="0 0 720 305" font-family="DejaVu Sans, Arial, sans-serif"><defs><marker id="a" markerWidth="10" markerHeight="10" refX="8" refY="3" orient="auto" markerUnits="strokeWidth"><path d="M0,0 L8,3 L0,6 Z" fill="#F5B301"/></marker><marker id="ag" markerWidth="10" markerHeight="10" refX="8" refY="3" orient="auto" markerUnits="strokeWidth"><path d="M0,0 L8,3 L0,6 Z" fill="#1E9E5A"/></marker></defs><text x="20" y="24" fill="#2088ff" font-size="15" font-weight="bold" text-anchor="start">Workflow = 1 fichier .yml dans .github/workflows/</text><rect x="20" y="36" width="680" height="258" rx="12" fill="none" stroke="#2088ff" stroke-width="2.5"/><text x="34" y="58" fill="#2088ff" font-size="14" font-weight="bold" text-anchor="start">WORKFLOW  « CI/CD »</text><rect x="540" y="44" width="150" height="30" rx="8" fill="#F5B301"/><text x="615.0" y="64.0" fill="#0B3D62" font-size="12" font-weight="bold" text-anchor="middle">on: push</text><rect x="34" y="80" width="316" height="200" rx="10" fill="#F4F7FA" stroke="#14507A" stroke-width="1.6"/><text x="48" y="102" fill="#0B3D62" font-size="13" font-weight="bold" text-anchor="start">JOB  build</text><text x="48" y="120" fill="#5B6770" font-size="10" text-anchor="start">runs-on: ubuntu-latest</text><rect x="48" y="132" width="286" height="30" rx="8" fill="#0B3D62"/><text x="191.0" y="152.0" fill="#fff" font-size="11" font-weight="bold" text-anchor="middle">step: checkout</text><rect x="48" y="168" width="286" height="30" rx="8" fill="#0B3D62"/><text x="191.0" y="188.0" fill="#fff" font-size="11" font-weight="bold" text-anchor="middle">step: setup-node</text><rect x="48" y="204" width="286" height="30" rx="8" fill="#0B3D62"/><text x="191.0" y="224.0" fill="#fff" font-size="11" font-weight="bold" text-anchor="middle">step: npm test</text><rect x="48" y="240" width="286" height="30" rx="8" fill="#0B3D62"/><text x="191.0" y="260.0" fill="#fff" font-size="11" font-weight="bold" text-anchor="middle">step: npm build</text><rect x="370" y="80" width="316" height="200" rx="10" fill="#F4F7FA" stroke="#14507A" stroke-width="1.6"/><text x="384" y="102" fill="#0B3D62" font-size="13" font-weight="bold" text-anchor="start">JOB  deploy</text><text x="384" y="120" fill="#5B6770" font-size="10" text-anchor="start">needs: build</text><rect x="384" y="132" width="286" height="30" rx="8" fill="#1E9E5A"/><text x="527.0" y="152.0" fill="#fff" font-size="11" font-weight="bold" text-anchor="middle">step: build image</text><rect x="384" y="168" width="286" height="30" rx="8" fill="#1E9E5A"/><text x="527.0" y="188.0" fill="#fff" font-size="11" font-weight="bold" text-anchor="middle">step: push registry</text><rect x="384" y="204" width="286" height="30" rx="8" fill="#1E9E5A"/><text x="527.0" y="224.0" fill="#fff" font-size="11" font-weight="bold" text-anchor="middle">step: deploy SSH</text><line x1="350" y1="180" x2="370" y2="180" stroke="#F5B301" stroke-width="3" marker-end="url(#a)"/></svg>