<svg xmlns="http://www.w3.org/2000/svg" viewBox="0 0 720 305" font-family="DejaVu Sans, Arial, sans-serif"><defs><marker id="a" markerWidth="10" markerHeight="10" refX="8" refY="3" orient="auto" markerUnits="strokeWidth"><path d="M0,0 L8,3 L0,6 Z" fill="#F5B301"/></marker><marker id="ag" markerWidth="10" markerHeight="10" refX="8" refY="3" orient="auto" markerUnits="strokeWidth"><path d="M0,0 L8,3 L0,6 Z" fill="#1E9E5A"/></marker></defs><rect x="24" y="24" width="326" height="56" rx="8" fill="#0B3D62"/><text x="187.0" y="48.0" fill="#fff" font-size="16" font-weight="bold" text-anchor="middle">Workflow</text><text x="187.0" y="67.0" fill="#fff" font-size="11" text-anchor="middle">le pipeline (1 fichier .yml)</text><rect x="370" y="24" width="326" height="56" rx="8" fill="#F5B301"/><text x="533.0" y="48.0" fill="#0B3D62" font-size="16" font-weight="bold" text-anchor="middle">Event</text><text x="533.0" y="67.0" fill="#0B3D62" font-size="11" text-anchor="middle">ce qui déclenche (push, PR…)</text><rect x="24" y="94" width="326" height="56" rx="8" fill="#14507A"/><text x="187.0" y="118.0" fill="#fff" font-size="16" font-weight="bold" text-anchor="middle">Job</text><text x="187.0" y="137.0" fill="#fff" font-size="11" text-anchor="middle">un groupe d'étapes, sur 1 runner</text><rect x="370" y="94" width="326" height="56" rx="8" fill="#1E9E5A"/><text x="533.0" y="118.0" fill="#fff" font-size="16" font-weight="bold" text-anchor="middle">Step</text><text x="533.0" y="137.0" fill="#fff" font-size="11" text-anchor="middle">une commande ou une action</text><rect x="24" y="164" width="326" height="56" rx="8" fill="#6C3FB5"/><text x="187.0" y="188.0" fill="#fff" font-size="16" font-weight="bold" text-anchor="middle">Action</text><text x="187.0" y="207.0" fill="#fff" font-size="11" text-anchor="middle">brique réutilisable (Marketplace)</text><rect x="370" y="164" width="326" height="56" rx="8" fill="#5B6770"/><text x="533.0" y="188.0" fill="#fff" font-size="16" font-weight="bold" text-anchor="middle">Runner</text><text x="533.0" y="207.0" fill="#fff" font-size="11" text-anchor="middle">la machine d'exécution</text><rect x="24" y="234" width="326" height="56" rx="8" fill="#C0392B"/><text x="187.0" y="258.0" fill="#fff" font-size="16" font-weight="bold" text-anchor="middle">Secret</text><text x="187.0" y="277.0" fill="#fff" font-size="11" text-anchor="middle">valeur chiffrée (token, clé SSH)</text><rect x="370" y="234" width="326" height="56" rx="8" fill="#B8860B"/><text x="533.0" y="258.0" fill="#fff" font-size="16" font-weight="bold" text-anchor="middle">Artifact</text><text x="533.0" y="277.0" fill="#fff" font-size="11" text-anchor="middle">fichier produit & partagé</text></svg>