<svg xmlns="http://www.w3.org/2000/svg" viewBox="0 0 360 466" font-family="DejaVu Sans, Arial, sans-serif"><defs><marker id="a" markerWidth="10" markerHeight="10" refX="8" refY="3" orient="auto" markerUnits="strokeWidth"><path d="M0,0 L8,3 L0,6 Z" fill="#F5B301"/></marker><marker id="ag" markerWidth="10" markerHeight="10" refX="8" refY="3" orient="auto" markerUnits="strokeWidth"><path d="M0,0 L8,3 L0,6 Z" fill="#1E9E5A"/></marker></defs><rect x="70" y="14" width="220" height="50" rx="8" fill="#5B6770"/><text x="180.0" y="35.0" fill="#fff" font-size="16" font-weight="bold" text-anchor="middle">Commit</text><text x="180.0" y="54.0" fill="#fff" font-size="11" text-anchor="middle">le dev pousse</text><line x1="180" y1="64" x2="180" y2="78" stroke="#F5B301" stroke-width="3" marker-end="url(#a)"/><rect x="70" y="78" width="220" height="50" rx="8" fill="#0B3D62"/><text x="180.0" y="99.0" fill="#fff" font-size="16" font-weight="bold" text-anchor="middle">Lint</text><text x="180.0" y="118.0" fill="#fff" font-size="11" text-anchor="middle">style du code</text><line x1="180" y1="128" x2="180" y2="142" stroke="#F5B301" stroke-width="3" marker-end="url(#a)"/><rect x="70" y="142" width="220" height="50" rx="8" fill="#0B3D62"/><text x="180.0" y="163.0" fill="#fff" font-size="16" font-weight="bold" text-anchor="middle">Test</text><text x="180.0" y="182.0" fill="#fff" font-size="11" text-anchor="middle">tests auto</text><line x1="180" y1="192" x2="180" y2="206" stroke="#F5B301" stroke-width="3" marker-end="url(#a)"/><rect x="70" y="206" width="220" height="50" rx="8" fill="#14507A"/><text x="180.0" y="227.0" fill="#fff" font-size="16" font-weight="bold" text-anchor="middle">Build</text><text x="180.0" y="246.0" fill="#fff" font-size="11" text-anchor="middle">compilation</text><line x1="180" y1="256" x2="180" y2="270" stroke="#F5B301" stroke-width="3" marker-end="url(#a)"/><rect x="70" y="270" width="220" height="50" rx="8" fill="#6C3FB5"/><text x="180.0" y="291.0" fill="#fff" font-size="16" font-weight="bold" text-anchor="middle">Scan sécu</text><text x="180.0" y="310.0" fill="#fff" font-size="11" text-anchor="middle">vulnérabilités</text><line x1="180" y1="320" x2="180" y2="334" stroke="#F5B301" stroke-width="3" marker-end="url(#a)"/><rect x="70" y="334" width="220" height="50" rx="8" fill="#14507A"/><text x="180.0" y="355.0" fill="#fff" font-size="16" font-weight="bold" text-anchor="middle">Image</text><text x="180.0" y="374.0" fill="#fff" font-size="11" text-anchor="middle">Docker</text><line x1="180" y1="384" x2="180" y2="398" stroke="#F5B301" stroke-width="3" marker-end="url(#a)"/><rect x="70" y="398" width="220" height="50" rx="8" fill="#1E9E5A"/><text x="180.0" y="419.0" fill="#fff" font-size="16" font-weight="bold" text-anchor="middle">Deploy</text><text x="180.0" y="438.0" fill="#fff" font-size="11" text-anchor="middle">→ production</text></svg>