<svg xmlns="http://www.w3.org/2000/svg" viewBox="0 0 720 200" font-family="DejaVu Sans, Arial, sans-serif"><defs><marker id="a" markerWidth="10" markerHeight="10" refX="8" refY="3" orient="auto" markerUnits="strokeWidth"><path d="M0,0 L8,3 L0,6 Z" fill="#F5B301"/></marker><marker id="ag" markerWidth="10" markerHeight="10" refX="8" refY="3" orient="auto" markerUnits="strokeWidth"><path d="M0,0 L8,3 L0,6 Z" fill="#1E9E5A"/></marker></defs><text x="360" y="24" fill="#0B3D62" font-size="15" font-weight="bold" text-anchor="middle">Du commit à la prod — chaque étape garde la qualité</text><rect x="16" y="80" width="90" height="56" rx="8" fill="#5B6770"/><text x="61.0" y="113.0" fill="#fff" font-size="13" font-weight="bold" text-anchor="middle">Commit</text><line x1="106" y1="108" x2="118" y2="108" stroke="#F5B301" stroke-width="3" marker-end="url(#a)"/><rect x="118" y="80" width="90" height="56" rx="8" fill="#0B3D62"/><text x="163.0" y="113.0" fill="#fff" font-size="13" font-weight="bold" text-anchor="middle">Lint</text><line x1="208" y1="108" x2="220" y2="108" stroke="#F5B301" stroke-width="3" marker-end="url(#a)"/><rect x="220" y="80" width="90" height="56" rx="8" fill="#0B3D62"/><text x="265.0" y="113.0" fill="#fff" font-size="13" font-weight="bold" text-anchor="middle">Test</text><line x1="310" y1="108" x2="322" y2="108" stroke="#F5B301" stroke-width="3" marker-end="url(#a)"/><rect x="322" y="80" width="90" height="56" rx="8" fill="#14507A"/><text x="367.0" y="113.0" fill="#fff" font-size="13" font-weight="bold" text-anchor="middle">Build</text><line x1="412" y1="108" x2="424" y2="108" stroke="#F5B301" stroke-width="3" marker-end="url(#a)"/><rect x="424" y="80" width="90" height="56" rx="8" fill="#6C3FB5"/><text x="469.0" y="113.0" fill="#fff" font-size="13" font-weight="bold" text-anchor="middle">Scan sécu</text><line x1="514" y1="108" x2="526" y2="108" stroke="#F5B301" stroke-width="3" marker-end="url(#a)"/><rect x="526" y="80" width="90" height="56" rx="8" fill="#14507A"/><text x="571.0" y="113.0" fill="#fff" font-size="13" font-weight="bold" text-anchor="middle">Image</text><line x1="616" y1="108" x2="628" y2="108" stroke="#F5B301" stroke-width="3" marker-end="url(#a)"/><rect x="628" y="80" width="90" height="56" rx="8" fill="#1E9E5A"/><text x="673.0" y="113.0" fill="#fff" font-size="13" font-weight="bold" text-anchor="middle">Deploy</text><text x="360" y="175" fill="#5B6770" font-size="12" text-anchor="middle">❌ pipeline rouge → on ne fusionne pas · ✅ vert → déployable</text></svg>