<svg xmlns="http://www.w3.org/2000/svg" viewBox="0 0 720 270" font-family="DejaVu Sans, Arial, sans-serif"><defs><marker id="a" markerWidth="10" markerHeight="10" refX="8" refY="3" orient="auto" markerUnits="strokeWidth"><path d="M0,0 L8,3 L0,6 Z" fill="#F5B301"/></marker><marker id="ag" markerWidth="10" markerHeight="10" refX="8" refY="3" orient="auto" markerUnits="strokeWidth"><path d="M0,0 L8,3 L0,6 Z" fill="#1E9E5A"/></marker></defs><text x="20" y="26" fill="#C0392B" font-size="16" font-weight="bold" text-anchor="start">SANS CI/CD — intégration tardive, douloureuse</text><rect x="20" y="44" width="110" height="32" rx="8" fill="#5B6770"/><text x="75.0" y="65.0" fill="#fff" font-size="12" font-weight="bold" text-anchor="middle">Dev A</text><rect x="20" y="84" width="110" height="32" rx="8" fill="#5B6770"/><text x="75.0" y="105.0" fill="#fff" font-size="12" font-weight="bold" text-anchor="middle">Dev B</text><rect x="20" y="124" width="110" height="32" rx="8" fill="#5B6770"/><text x="75.0" y="145.0" fill="#fff" font-size="12" font-weight="bold" text-anchor="middle">Dev C</text><line x1="130" y1="100" x2="230" y2="100" stroke="#C0392B" stroke-width="3" marker-end="url(#a)"/><rect x="230" y="70" width="150" height="60" rx="8" fill="#C0392B"/><text x="305.0" y="96.0" fill="#fff" font-size="13" font-weight="bold" text-anchor="middle">MERGE GÉANT</text><text x="305.0" y="115.0" fill="#fff" font-size="10" text-anchor="middle">conflits, bugs</text><line x1="380" y1="100" x2="470" y2="100" stroke="#C0392B" stroke-width="3" marker-end="url(#a)"/><rect x="470" y="70" width="230" height="60" rx="8" fill="#7B241C"/><text x="585.0" y="96.0" fill="#fff" font-size="12" font-weight="bold" text-anchor="middle">Déploiement rare & stressant</text><text x="585.0" y="115.0" fill="#fff" font-size="10" text-anchor="middle">manuel · « ça marche chez moi »</text><text x="20" y="196" fill="#1E9E5A" font-size="16" font-weight="bold" text-anchor="start">AVEC CI/CD — petits lots, intégrés en continu</text><rect x="20" y="214" width="92" height="40" rx="8" fill="#1E9E5A"/><text x="66.0" y="230.0" fill="#fff" font-size="11" font-weight="bold" text-anchor="middle">commit 1</text><text x="66.0" y="249.0" fill="#fff" font-size="9" text-anchor="middle">testé auto</text><line x1="112" y1="234" x2="140" y2="234" stroke="#1E9E5A" stroke-width="3" marker-end="url(#a)"/><rect x="140" y="214" width="92" height="40" rx="8" fill="#1E9E5A"/><text x="186.0" y="230.0" fill="#fff" font-size="11" font-weight="bold" text-anchor="middle">commit 2</text><text x="186.0" y="249.0" fill="#fff" font-size="9" text-anchor="middle">testé auto</text><line x1="232" y1="234" x2="260" y2="234" stroke="#1E9E5A" stroke-width="3" marker-end="url(#a)"/><rect x="260" y="214" width="92" height="40" rx="8" fill="#1E9E5A"/><text x="306.0" y="230.0" fill="#fff" font-size="11" font-weight="bold" text-anchor="middle">commit 3</text><text x="306.0" y="249.0" fill="#fff" font-size="9" text-anchor="middle">testé auto</text><line x1="352" y1="234" x2="380" y2="234" stroke="#1E9E5A" stroke-width="3" marker-end="url(#a)"/><rect x="380" y="214" width="92" height="40" rx="8" fill="#1E9E5A"/><text x="426.0" y="230.0" fill="#fff" font-size="11" font-weight="bold" text-anchor="middle">commit 4</text><text x="426.0" y="249.0" fill="#fff" font-size="9" text-anchor="middle">testé auto</text><line x1="500" y1="234" x2="526" y2="234" stroke="#1E9E5A" stroke-width="3" marker-end="url(#a)"/><rect x="526" y="210" width="174" height="48" rx="8" fill="#0B3D62"/><text x="613.0" y="230.0" fill="#fff" font-size="12" font-weight="bold" text-anchor="middle">Prod, plusieurs fois/jour</text><text x="613.0" y="249.0" fill="#fff" font-size="10" text-anchor="middle">auto · fiable · sans stress</text></svg>